<svg viewBox="0 0 197 43" xmlns="http://www.w3.org/2000/svg" data-logo="logo">
        <g transform="translate(41, 1) rotate(90)" id="logogram" style="opacity: 1;"><path fill="#005834" d="M26.461 12.3052C24.8165 11.2064 22.8831 10.6199 20.9053 10.6199V0.619934C24.8609 0.619934 28.7277 1.79291 32.0167 3.99054C35.3056 6.18817 37.8691 9.31174 39.3829 12.9663C40.8966 16.6208 41.2927 20.6421 40.521 24.5217C39.7493 28.4014 37.8444 31.965 35.0474 34.7621C32.2503 37.5591 28.6867 39.4639 24.8071 40.2356C20.9275 41.0073 16.9061 40.6113 13.2516 39.0975C9.59708 37.5838 6.47351 35.0203 4.27588 31.7313C2.07825 28.4423 0.905273 24.5756 0.905273 20.6199H10.9053C10.9053 22.5977 11.4918 24.5311 12.5906 26.1756C13.6894 27.8201 15.2512 29.1018 17.0784 29.8587C18.9057 30.6156 20.9164 30.8136 22.8562 30.4278C24.796 30.0419 26.5778 29.0895 27.9763 27.691C29.3749 26.2925 30.3273 24.5106 30.7131 22.5708C31.099 20.631 30.9009 18.6204 30.1441 16.7931C29.3872 14.9658 28.1055 13.404 26.461 12.3052Z" clip-rule="evenodd" fill-rule="evenodd"></path><path fill="#005834" d="M10.9053 0.619965C10.9053 1.93318 10.6466 3.23354 10.1441 4.4468C9.64153 5.66006 8.90493 6.76245 7.97635 7.69103C7.04776 8.61962 5.94537 9.35621 4.73211 9.85876C3.51886 10.3613 2.2185 10.62 0.905279 10.62L0.905273 20.6199C3.53171 20.6199 6.13244 20.1026 8.55895 19.0976C10.9855 18.0925 13.1902 16.6193 15.0474 14.7621C16.9046 12.9049 18.3778 10.7001 19.3829 8.27363C20.388 5.84712 20.9053 3.24637 20.9053 0.619934L10.9053 0.619965Z" clip-rule="evenodd" fill-rule="evenodd"></path></g>
        <g transform="translate(47, 1.5)" id="logotype" style="opacity: 1;"><path d="M13.34 37L7.44 37Q7.06 37 6.74 36.69Q6.43 36.38 6.43 35.99L6.43 35.99Q6.43 35.75 6.48 35.56L6.48 35.56L17.76 4.74Q17.90 4.22 18.36 3.81Q18.82 3.40 19.63 3.40L19.63 3.40L26.74 3.40Q27.55 3.40 28.01 3.81Q28.46 4.22 28.61 4.74L28.61 4.74L39.84 35.56Q39.94 35.75 39.94 35.99L39.94 35.99Q39.94 36.38 39.62 36.69Q39.31 37 38.88 37L38.88 37L32.98 37Q32.26 37 31.90 36.64Q31.54 36.28 31.44 35.99L31.44 35.99L29.57 31.10L16.75 31.10L14.93 35.99Q14.83 36.28 14.50 36.64Q14.16 37 13.34 37L13.34 37ZM23.18 11.51L18.72 24.18L27.65 24.18L23.18 11.51ZM69.98 40.12L63.70 40.12Q62.93 40.12 62.52 39.71Q62.11 39.30 61.87 39.02L61.87 39.02L60.24 36.86Q58.37 37.48 55.97 37.48L55.97 37.48Q51.55 37.48 48.31 36.04Q45.07 34.60 43.22 31.70Q41.38 28.79 41.23 24.42L41.23 24.42Q41.18 22.36 41.18 20.27Q41.18 18.18 41.23 16.12L41.23 16.12Q41.38 11.80 43.25 8.85Q45.12 5.90 48.38 4.41Q51.65 2.92 55.97 2.92L55.97 2.92Q60.34 2.92 63.60 4.41Q66.86 5.90 68.76 8.85Q70.66 11.80 70.75 16.12L70.75 16.12Q70.85 18.18 70.85 20.27Q70.85 22.36 70.75 24.42L70.75 24.42Q70.51 30.38 67.30 33.64L67.30 33.64L70.80 38.63Q70.85 38.68 70.90 38.82Q70.94 38.97 70.94 39.11L70.94 39.11Q70.99 39.50 70.70 39.81Q70.42 40.12 69.98 40.12L69.98 40.12ZM55.97 30.57L55.97 30.57Q58.51 30.57 60.12 29.03Q61.73 27.50 61.82 24.14L61.82 24.14Q61.92 22.02 61.92 20.15Q61.92 18.28 61.82 16.26L61.82 16.26Q61.78 14.01 61.01 12.59Q60.24 11.18 58.97 10.50Q57.70 9.83 55.97 9.83L55.97 9.83Q54.34 9.83 53.04 10.50Q51.74 11.18 51.00 12.59Q50.26 14.01 50.16 16.26L50.16 16.26Q50.11 18.28 50.11 20.15Q50.11 22.02 50.16 24.14L50.16 24.14Q50.30 27.50 51.89 29.03Q53.47 30.57 55.97 30.57ZM79.01 37L73.10 37Q72.72 37 72.41 36.69Q72.10 36.38 72.10 35.99L72.10 35.99Q72.10 35.75 72.14 35.56L72.14 35.56L83.42 4.74Q83.57 4.22 84.02 3.81Q84.48 3.40 85.30 3.40L85.30 3.40L92.40 3.40Q93.22 3.40 93.67 3.81Q94.13 4.22 94.27 4.74L94.27 4.74L105.50 35.56Q105.60 35.75 105.60 35.99L105.60 35.99Q105.60 36.38 105.29 36.69Q104.98 37 104.54 37L104.54 37L98.64 37Q97.92 37 97.56 36.64Q97.20 36.28 97.10 35.99L97.10 35.99L95.23 31.10L82.42 31.10L80.59 35.99Q80.50 36.28 80.16 36.64Q79.82 37 79.01 37L79.01 37ZM88.85 11.51L84.38 24.18L93.31 24.18L88.85 11.51ZM115.34 37L109.15 37Q108.62 37 108.29 36.64Q107.95 36.28 107.95 35.80L107.95 35.80L107.95 4.60Q107.95 4.07 108.29 3.74Q108.62 3.40 109.15 3.40L109.15 3.40L122.21 3.40Q128.45 3.40 132 6.26Q135.55 9.11 135.55 14.34L135.55 14.34Q135.55 17.75 133.92 20.10Q132.29 22.46 129.60 23.66L129.60 23.66L136.18 35.46Q136.32 35.75 136.32 35.99L136.32 35.99Q136.32 36.38 136.01 36.69Q135.70 37 135.31 37L135.31 37L128.93 37Q128.02 37 127.58 36.54Q127.15 36.09 126.96 35.70L126.96 35.70L121.49 25.14L116.59 25.14L116.59 35.80Q116.59 36.28 116.23 36.64Q115.87 37 115.34 37L115.34 37ZM116.59 10.07L116.59 18.33L122.11 18.33Q124.37 18.33 125.50 17.22Q126.62 16.12 126.62 14.25L126.62 14.25Q126.62 12.38 125.54 11.22Q124.46 10.07 122.11 10.07L122.11 10.07L116.59 10.07ZM147.31 37L140.88 37Q140.35 37 140.02 36.64Q139.68 36.28 139.68 35.80L139.68 35.80L139.68 4.60Q139.68 4.07 140.02 3.74Q140.35 3.40 140.88 3.40L140.88 3.40L147.31 3.40Q147.84 3.40 148.20 3.74Q148.56 4.07 148.56 4.60L148.56 4.60L148.56 35.80Q148.56 36.28 148.20 36.64Q147.84 37 147.31 37L147.31 37Z" fill="#ffffff"></path></g>
        
      </svg>
